<svg xmlns="http://www.w3.org/2000/svg" width="141.566" height="47.361" viewBox="0 0 141.566 47.361">
    <defs>
        <clipPath id="clip-path">
            <path id="Rectangle_21" fill="none" d="M0 0H141.566V47.361H0z"/>
        </clipPath>
        <style>
            .cls-4{fill:#fefefe;fill-rule:evenodd}
        </style>
    </defs>
    <g id="Group_29" opacity="0.8">
        <g id="Group_28" clip-path="url(#clip-path)">
            <path id="Path_204" d="M205.755 100.037a9.646 9.646 0 0 1-3.881-.74 7.969 7.969 0 0 1-2.841-2.057 8.989 8.989 0 0 1-1.74-3.113 13.048 13.048 0 0 1 0-7.735 8.965 8.965 0 0 1 1.74-3.111 7.942 7.942 0 0 1 2.841-2.059 9.628 9.628 0 0 1 3.881-.744 12.156 12.156 0 0 1 2.833.31 10.367 10.367 0 0 1 2.491.954l-.9 2.773a8.685 8.685 0 0 0-4.147-1.066 5.116 5.116 0 0 0-4.257 1.794 7.864 7.864 0 0 0-1.429 5.018 7.792 7.792 0 0 0 1.441 5.013 5.122 5.122 0 0 0 4.245 1.794 8.813 8.813 0 0 0 2-.28 9.707 9.707 0 0 0 2.312-.9l.842 2.8a9.886 9.886 0 0 1-2.51 1 11.922 11.922 0 0 1-2.93.347" class="cls-4" transform="translate(-142.656 -58.364)"/>
            <path id="Path_205" d="M280.7 92.524h-7.677v8.076h-3.644V81.709h3.644v7.676h7.677v-7.676h3.641V100.6H280.7z" class="cls-4" transform="translate(-195.358 -59.257)"/>
            <path id="Path_206" d="M350.075 93.339h4.707l-.928-2.831-1.4-4.819h-.054l-1.4 4.819zm5.771 3.025h-6.836l-1.43 4.231h-3.812l6.812-18.885h3.7l6.811 18.885h-3.813z" class="cls-4" transform="translate(-249.307 -59.258)"/>
            <path id="Rectangle_20" fill="#fefefe" d="M0 0H3.642V18.885H0z" transform="translate(117.259 22.453)"/>
            <path id="Path_207" d="M471.481 81.71h3.642v18.89h-3.642l-7.9-14.626V100.6h-3.641V81.71h3.921l7.622 14.626z" class="cls-4" transform="translate(-333.557 -59.258)"/>
            <path id="Path_208" d="M201.3 21.944a3.893 3.893 0 0 0-3.053 1.224 5.088 5.088 0 0 0-1.1 3.5 5.1 5.1 0 0 0 1.087 3.476 3.853 3.853 0 0 0 3.045 1.232 5.665 5.665 0 0 0 2.516-.546l.323 1.087a5.859 5.859 0 0 1-1.3.47 7 7 0 0 1-1.559.16 6.2 6.2 0 0 1-2.4-.424 4.431 4.431 0 0 1-1.675-1.191 4.912 4.912 0 0 1-.987-1.851 8.463 8.463 0 0 1-.323-2.414 7.669 7.669 0 0 1 .357-2.384 5.261 5.261 0 0 1 1.045-1.861 4.8 4.8 0 0 1 1.693-1.2 5.734 5.734 0 0 1 2.312-.436 7.219 7.219 0 0 1 1.53.144 6.087 6.087 0 0 1 1.207.4l-.318 1.09a5.684 5.684 0 0 0-2.4-.477" class="cls-4" transform="translate(-142.056 -15.074)"/>
            <path id="Path_209" d="M242.523 31.481a3.843 3.843 0 0 0 1.655-.331 3.134 3.134 0 0 0 1.185-.96 4.324 4.324 0 0 0 .706-1.513 8.9 8.9 0 0 0 0-4.014 4.325 4.325 0 0 0-.706-1.513 3.128 3.128 0 0 0-1.185-.96 3.851 3.851 0 0 0-1.655-.332 3.924 3.924 0 0 0-1.668.332 3.121 3.121 0 0 0-1.191.96 4.284 4.284 0 0 0-.7 1.513 8.841 8.841 0 0 0 0 4.014 4.283 4.283 0 0 0 .7 1.513 3.127 3.127 0 0 0 1.191.96 3.916 3.916 0 0 0 1.668.331m0 1.071a5.3 5.3 0 0 1-2.263-.442 4.347 4.347 0 0 1-1.584-1.231 5.232 5.232 0 0 1-.925-1.872 9.382 9.382 0 0 1 0-4.678 5.2 5.2 0 0 1 .925-1.868 4.294 4.294 0 0 1 1.584-1.232 5.96 5.96 0 0 1 4.521 0 4.259 4.259 0 0 1 1.583 1.232 5.186 5.186 0 0 1 .926 1.868 9.348 9.348 0 0 1 0 4.678 5.215 5.215 0 0 1-.926 1.872 4.311 4.311 0 0 1-1.583 1.231 5.3 5.3 0 0 1-2.259.442" class="cls-4" transform="translate(-172.208 -15.073)"/>
            <path id="Path_210" d="M290.487 30.936l-3.316-7.754V32.8H285.9V21.345h1.511l2.774 6.139c.078.181.17.381.27.6s.2.439.291.655.172.418.245.612.127.35.16.475h.052a5.011 5.011 0 0 1 .162-.475c.074-.195.156-.4.246-.612s.184-.434.281-.655.189-.422.282-.6l2.773-6.139h1.511V32.8h-1.276v-9.618l-3.317 7.754z" class="cls-4" transform="translate(-207.34 -15.48)"/>
            <path id="Path_211" d="M342.045 24.882a2.319 2.319 0 0 0-.63-1.717 2.5 2.5 0 0 0-1.838-.63h-2.4V27.3h2.3a2.639 2.639 0 0 0 1.888-.642 2.332 2.332 0 0 0 .681-1.771m1.291 0a3.737 3.737 0 0 1-.272 1.438 3.363 3.363 0 0 1-.773 1.136 3.556 3.556 0 0 1-1.215.76 4.489 4.489 0 0 1-1.6.27h-2.3V32.8h-1.293V21.345h3.689a4.479 4.479 0 0 1 1.589.27 3.377 3.377 0 0 1 1.183.752 3.249 3.249 0 0 1 .731 1.12 3.763 3.763 0 0 1 .255 1.4" class="cls-4" transform="translate(-243.593 -15.48)"/>
            <path id="Path_212" d="M374.559 21.345h1.294v10.271h5.473V32.8h-6.768z" class="cls-4" transform="translate(-271.638 -15.48)"/>
            <path id="Path_213" d="M410.756 21.345h6.919v1.173h-5.626v3.777h5.285v1.189h-5.285v4.148h5.73V32.8h-7.023z" class="cls-4" transform="translate(-297.889 -15.48)"/>
            <path id="Path_214" d="M452.673 22.5v10.265h-1.293V22.5l-3.5.018v-1.227h8.3v1.224z" class="cls-4" transform="translate(-324.809 -15.44)"/>
            <path id="Path_215" d="M489.642 21.345h6.922v1.173h-5.629v3.777h5.287v1.189h-5.287v4.148h5.73V32.8h-7.024z" class="cls-4" transform="translate(-355.099 -15.48)"/>
            <path id="Path_216" d="M31.108 11.148l-1.714 6.588a9.819 9.819 0 0 0-11.638 15.817L7 33.531a17.853 17.853 0 0 1-1.935-8.094A18.624 18.624 0 0 1 14.821 9.16a29.3 29.3 0 0 0 5.209-3.117c.985-.82 1.843-1.97 2.13-4.8.485.577 1 1.186 1.522 1.774a18.641 18.641 0 0 0 2.992 2.9c2.048 1.355 4.1 1.887 6.27 3.241.447.278 2.652 1.982 3.1 2.35a11.133 11.133 0 0 1 1.122 1.192zM40.817 0H6.545A6.562 6.562 0 0 0 0 6.545v29.009h23.682a9.831 9.831 0 0 0 8.118-15.37L33.064 14l6.183 1.267a18.79 18.79 0 0 1 3.048 10.5 17.977 17.977 0 0 1-2.763 9.787l-.015.02c-.181.283-.373.557-.569.827-.052.073-.108.144-.161.216-.159.212-.324.418-.491.623l-.17.206c-.206.24-.417.475-.633.7l-.052.056c-.245.255-.5.5-.759.742-.038.034-.075.065-.112.1q-.331.3-.677.583l-.177.14c-.234.188-.475.367-.719.542-.035.027-.073.054-.111.081a17.9 17.9 0 0 1-1.827 1.129l-.11.058c-.288.151-.58.3-.877.434l-.1.048a18.838 18.838 0 0 1-3.136 1.111l-.06.017a19.933 19.933 0 0 1-4.576.613h-.012c-.115 0-.229.008-.343.008-.057 0-.109-.008-.161-.008H.728a6.556 6.556 0 0 0 5.817 3.564h34.272a6.557 6.557 0 0 0 5.816-3.564h-7.442v.007h-5.433a19.6 19.6 0 0 0 8.453-8.252h5.153V6.545A6.562 6.562 0 0 0 40.817 0" class="cls-4"/>
        </g>
    </g>
</svg>
