<svg xmlns="http://www.w3.org/2000/svg" xmlns:xlink="http://www.w3.org/1999/xlink" width="163.643" height="57.503" viewBox="0 0 163.643 57.503">
    <defs>
        <clipPath id="clip-path">
            <path id="Rectangle_2" d="M0 0H163.643V57.502H0z" class="cls-1"/>
        </clipPath>
        <clipPath id="clip-path-2">
            <path id="Rectangle_4" d="M0 0H52.352V57.306H0z" class="cls-1" transform="translate(0 -.001)"/>
        </clipPath>
        <clipPath id="clip-path-3">
            <path id="Path_7" d="M48.892 41.158l15.241 15.954a1.283 1.283 0 0 0 1.795.046l3.719-3.49a1.1 1.1 0 0 0-.047-1.686l-17-14.3z" class="cls-1"/>
        </clipPath>
        <clipPath id="clip-path-4">
            <path id="Path_8" d="M64.133 57.112a1.283 1.283 0 0 0 1.795.046l3.719-3.49a1.1 1.1 0 0 0-.047-1.686z" class="cls-1"/>
        </clipPath>
        <clipPath id="clip-path-5">
            <path id="Path_9" d="M49.855 34.731l-4.1 3.853a1.175 1.175 0 0 0 0 1.732l1.1 1.027a1.371 1.371 0 0 0 1.847 0l.2-.185L52.6 37.68l.2-.187a1.18 1.18 0 0 0 0-1.735l-1.1-1.027a1.373 1.373 0 0 0-1.847 0" class="cls-1"/>
        </clipPath>
        <clipPath id="clip-path-6">
            <path id="Path_10" d="M52.458 37.175l-4.1 3.852a2.087 2.087 0 0 1-1.507.316 1.371 1.371 0 0 0 1.847 0l.2-.185L52.6 37.68l.2-.187a1.18 1.18 0 0 0 0-1.735 1.765 1.765 0 0 1-.34 1.417" class="cls-1"/>
        </clipPath>
        <clipPath id="clip-path-7">
            <path id="Path_11" d="M23.986 13.812a15.952 15.952 0 1 0 11.2-4.631 15.788 15.788 0 0 0-11.2 4.631" class="cls-1"/>
        </clipPath>
        <clipPath id="clip-path-9">
            <path id="Path_16" d="M24.4 35.425a14.019 14.019 0 0 1 0-20.716 16.34 16.34 0 0 1 22.074 0 14.02 14.02 0 0 1 0 20.716 16.344 16.344 0 0 1-22.073 0M21.8 12.264a17.328 17.328 0 0 0 0 25.6 20.2 20.2 0 0 0 27.285 0 17.328 17.328 0 0 0 0-25.6 20.2 20.2 0 0 0-27.283 0" class="cls-1"/>
        </clipPath>
        <clipPath id="clip-path-10">
            <path id="Path_17" d="M22.309 37.384C16 29.7 15.837 20.365 22.31 12.747a16.674 16.674 0 0 0 0 24.637" class="cls-1"/>
        </clipPath>
        <clipPath id="clip-path-11">
            <path id="Path_18" d="M48.563 34.134a12.741 12.741 0 0 0 0-18.133c4.443 5.883 4.507 12.454 0 18.133" class="cls-1"/>
        </clipPath>
        <linearGradient id="linear-gradient" x1=".327" x2=".387" y1=".003" y2=".985" gradientUnits="objectBoundingBox">
            <stop offset="0" stop-color="#ffecd2"/>
            <stop offset="1" stop-color="#ffaa34"/>
        </linearGradient>
        <linearGradient id="linear-gradient-2" x1="-1.542" x2="-1.508" y1=".836" y2=".836" gradientUnits="objectBoundingBox">
            <stop offset="0" stop-color="#262524"/>
            <stop offset=".225" stop-color="#030404"/>
            <stop offset=".5" stop-color="#676363"/>
            <stop offset=".794" stop-color="#030404"/>
            <stop offset="1" stop-color="#262524"/>
        </linearGradient>
        <linearGradient id="linear-gradient-3" x1="-7.634" x2="-7.513" y1=".83" y2=".83" gradientUnits="objectBoundingBox">
            <stop offset="0" stop-color="#030404"/>
            <stop offset=".5" stop-color="#323030"/>
            <stop offset="1" stop-color="#030404"/>
        </linearGradient>
        <linearGradient id="linear-gradient-4" x1="-3.993" x2="-3.902" y1="2.269" y2="2.269" xlink:href="#linear-gradient-2"/>
        <linearGradient id="linear-gradient-5" x1="-5.156" x2="-5.043" y1="2.617" y2="2.617" xlink:href="#linear-gradient-3"/>
        <linearGradient id="linear-gradient-6" x1="-2.077" x2="-1.939" y1="1.818" y2="1.818" gradientUnits="objectBoundingBox">
            <stop offset="0" stop-color="#181817"/>
            <stop offset=".199" stop-color="#737373"/>
            <stop offset=".376" stop-color="#bebebe"/>
            <stop offset=".501" stop-color="#ededed"/>
            <stop offset=".563" stop-color="#fff"/>
            <stop offset=".634" stop-color="#ccc"/>
            <stop offset=".73" stop-color="#8e8e8e"/>
            <stop offset=".817" stop-color="#5d5d5c"/>
            <stop offset=".893" stop-color="#3a3a39"/>
            <stop offset=".955" stop-color="#242423"/>
            <stop offset=".995" stop-color="#1d1d1c"/>
            <stop offset="1" stop-color="#1d1d1c"/>
        </linearGradient>
        <linearGradient id="linear-gradient-7" x1="-9.58" x2="-9.383" y1="2.291" y2="2.291" xlink:href="#linear-gradient-6"/>
        <radialGradient id="radial-gradient" cx=".5" cy=".489" r=".241" gradientTransform="scale(.939 -1) rotate(45 2.262 .004)" gradientUnits="objectBoundingBox">
            <stop offset="0" stop-color="#030404"/>
            <stop offset=".833" stop-color="#030404"/>
            <stop offset=".845" stop-color="#171616"/>
            <stop offset=".862" stop-color="#2a2828"/>
            <stop offset=".878" stop-color="#353232"/>
            <stop offset=".896" stop-color="#393636"/>
            <stop offset=".909" stop-color="#212020"/>
            <stop offset=".923" stop-color="#101010"/>
            <stop offset=".938" stop-color="#060707"/>
            <stop offset=".957" stop-color="#030404"/>
            <stop offset=".991" stop-color="#2c2a2a"/>
            <stop offset="1" stop-color="#2c2a2a"/>
        </radialGradient>
        <style>
            .cls-1{fill:none}.cls-2{clip-path:url(#clip-path)}.cls-3{fill:#313133}.cls-5{fill:#fff}.cls-25{fill:#1a1818}.cls-26{fill:#6d6f72}
        </style>
    </defs>
    <g id="Group_25" transform="translate(0 .001)">
        <g id="Group_2">
            <g id="Group_1" class="cls-2">
                <path id="Path_1" d="M85.357 0L77.48 19.183l-4.85-7.125a6.368 6.368 0 0 0 3.611-1.86 5 5 0 0 0 1.427-3.6 6.939 6.939 0 0 0-1.66-4.633A5.261 5.261 0 0 0 71.814 0H56.9v20.358h4.836v-7.952h5.494l5.29 7.952h9.515l1.835-4.632h8.42l1.717 4.632h5.1L90.336 0zM70.445 8.507A4.881 4.881 0 0 1 68 9.116h-6.262v-5.68h6.115a4.805 4.805 0 0 1 2.869.769 2.536 2.536 0 0 1 1.063 2.187 2.328 2.328 0 0 1-1.34 2.115m14.824 3.667l2.68-7.165 2.767 7.165z" class="cls-3"/>
                <path id="Path_2" d="M119.388 9.826a7 7 0 0 0-4.849-1.583h-6.611a2.819 2.819 0 0 1-1.936-.709 2.25 2.25 0 0 1-.8-1.753 2.024 2.024 0 0 1 .83-1.606 2.612 2.612 0 0 1 1.645-.68h12.146V0h-13.778a7.269 7.269 0 0 0-5.024 1.7A5.657 5.657 0 0 0 99.1 6.13a5.025 5.025 0 0 0 1.952 4.067 6.949 6.949 0 0 0 4.543 1.6h6q3.669 0 3.668 2.608a2.028 2.028 0 0 1-.93 1.758 3.479 3.479 0 0 1-2.01.557h-11.88v3.64h14.417a6.02 6.02 0 0 0 4.514-1.831 6.212 6.212 0 0 0 1.777-4.5 5.366 5.366 0 0 0-1.763-4.2" class="cls-3"/>
                <path id="Path_3" d="M128.868 6.514a4.674 4.674 0 0 1 1.049-1.5 4.434 4.434 0 0 1 1.528-1.073 5.294 5.294 0 0 1 1.907-.3h8.5V0h-9.2a11.844 11.844 0 0 0-2.635.262 10.361 10.361 0 0 0-2.4.9 8.236 8.236 0 0 0-3.553 3.782 11.952 11.952 0 0 0-1.165 5.321 12.221 12.221 0 0 0 1.209 5.438 7.585 7.585 0 0 0 3.509 3.606 9.892 9.892 0 0 0 4.428 1.048h9.93v-3.523h-8.979a3.64 3.64 0 0 1-1.771-.407 5.352 5.352 0 0 1-1.434-1.195 4.834 4.834 0 0 1-.95-1.529 5.228 5.228 0 0 1-.263-1.733h13.4V8.33h-13.4a4.923 4.923 0 0 1 .292-1.816" class="cls-3"/>
                <path id="Path_4" fill="#2d2d2d" d="M162.334 4.479A7.263 7.263 0 0 0 158.46.67a10.42 10.42 0 0 0-3.641-.67H144.45v20.358h10.98a12.975 12.975 0 0 0 2.418-.2 6.266 6.266 0 0 0 4.339-3.46 12.712 12.712 0 0 0 1.456-6.224 13.333 13.333 0 0 0-1.309-5.991M158.2 14.8a3.116 3.116 0 0 1-2.942 2.067l-6.058-.029V3.641h5.68a3.465 3.465 0 0 1 3.26 2.272 10.931 10.931 0 0 1 .846 4.63 10.068 10.068 0 0 1-.786 4.257"/>
                <g id="Group_26">
                    <path id="Path_5" d="M134.221 35.926a9.492 9.492 0 0 0-3.4-.568h-17.493v10.321h-4.991V35.351h-5.2v10.328H94.3a16.682 16.682 0 0 0-1.276-7.053 12.412 12.412 0 0 0-5.477-6.1c-2.226-1.176-4.412-1.3-7.258-1.143l-.351 4.391q9.118.279 9.4 8.98v.928h-12.3v4.807h61.324v-8.4a8.091 8.091 0 0 0-1.647-4.176 7.024 7.024 0 0 0-2.494-1.984m-1.659 9.753h-13.806V40h11a2.839 2.839 0 0 1 2.808 2.716z" class="cls-5"/>
                    <path id="Rectangle_1" d="M0 0H4.724V27.843H0z" class="cls-5" transform="translate(144.471 22.634)"/>
                    <path id="Path_6" d="M158.888 31.914v15.477q.022 5.289-3.807 5.312v4.734c5.894.261 8.438-3.063 8.562-9.977V31.914z" class="cls-5"/>
                </g>
            </g>
        </g>
        <g id="Group_4">
            <g id="Group_3" clip-path="url(#clip-path-2)">
                <path id="Rectangle_3" fill="url(#linear-gradient)" d="M0 0H77.54V77.54H0z" transform="rotate(-45 20.26 48.913)"/>
            </g>
        </g>
        <g id="Group_6">
            <g id="Group_5" clip-path="url(#clip-path-3)">
                <path id="Rectangle_5" fill="url(#linear-gradient-2)" d="M0 0H29.145V29.145H0z" transform="rotate(-45 76.985 -23.146)"/>
            </g>
        </g>
        <g id="Group_8">
            <g id="Group_7" clip-path="url(#clip-path-4)">
                <path id="Rectangle_6" fill="url(#linear-gradient-3)" d="M0 0H8.255V8.255H0z" transform="rotate(-45 96.813 -46.6)"/>
            </g>
        </g>
        <g id="Group_10">
            <g id="Group_9" clip-path="url(#clip-path-5)">
                <path id="Rectangle_7" fill="url(#linear-gradient-4)" d="M0 0H10.967V10.967H0z" transform="rotate(-45 66.747 -31.07)"/>
            </g>
        </g>
        <g id="Group_12">
            <g id="Group_11" clip-path="url(#clip-path-6)">
                <path id="Rectangle_8" fill="url(#linear-gradient-5)" d="M0 0H8.854V8.854H0z" transform="rotate(-45 68.73 -33.495)"/>
            </g>
        </g>
        <g id="Group_14">
            <g id="Group_13" clip-path="url(#clip-path-7)">
                <path id="Rectangle_9" fill="#d4d1d1" d="M0 0H48.454V48.454H0z" transform="rotate(-45 31.808 11.702)"/>
            </g>
        </g>
        <g id="Group_16">
            <g id="Group_15" class="cls-2">
                <path id="Path_12" d="M39.5 13.893c1.346 2.829-1.015 6.764-5.273 8.792s-8.8 1.375-10.148-1.455 1.015-6.768 5.272-8.792 8.8-1.377 10.149 1.455" class="cls-5"/>
                <path id="Path_13" fill="#939090" d="M24.049 35.425a14.763 14.763 0 0 1 0-20.876 20.689 20.689 0 0 0 0 20.876"/>
                <path id="Path_14" d="M47.728 16.835a.382.382 0 0 0-.035-.039c-.017-.024-.033-.049-.051-.072v.009c-.256-.294-.937-1.089-1.033-1.183.11.187.763 1.5.865 1.688a18.362 18.362 0 0 1 .06 15.521l-.059.127c-.13.252-.724 1.456-.867 1.705.12-.12.778-.9 1.08-1.261v.007c.045-.059.1-.113.139-.17a13.458 13.458 0 0 0-.1-16.328" class="cls-5"/>
            </g>
        </g>
        <g id="Group_18">
            <g id="Group_17" clip-path="url(#clip-path-9)">
                <path id="Path_15" fill="url(#radial-gradient)" d="M-5.974 25.951l41.41-38.863 41.411 38.863-41.411 38.863z"/>
            </g>
        </g>
        <g id="Group_20">
            <g id="Group_19" clip-path="url(#clip-path-10)">
                <path id="Rectangle_11" fill="url(#linear-gradient-6)" d="M0 0H7.25V24.637H0z" transform="translate(15.06 12.747)"/>
            </g>
        </g>
        <g id="Group_22">
            <g id="Group_21" clip-path="url(#clip-path-11)">
                <path id="Rectangle_12" fill="url(#linear-gradient-7)" d="M0 0H5.069V18.133H0z" transform="translate(48.563 16.001)"/>
            </g>
        </g>
        <g id="Group_24">
            <g id="Group_23" class="cls-2">
                <path id="Path_19" d="M3.412 4.788a.87.87 0 0 1 .288-.215 1.006 1.006 0 0 1 .433-.081v.842h.151v.26h-.449V4.85a.906.906 0 0 0-.417.567l-.034.177H3.1a1.261 1.261 0 0 1 .312-.806m0-.784h.271v.288h-.272zM3.8 4h.271v.288H3.8z" class="cls-25"/>
                <path id="Path_20" d="M4.462 4.5h.3v.836h.187v.26h-.703v-.26h.216zm-.013 1.24h.271v.288h-.271z" class="cls-25"/>
                <path id="Path_21" d="M5.056 4.51h.475a.433.433 0 0 1 .447.384v.44h.151v.26H4.894v-.26h.77v-.367a.179.179 0 0 0-.152-.2h-.456zM5.3 4h.271v.288H5.3z" class="cls-25"/>
                <path id="Path_22" d="M6.445 4.5h.3v.836h.175v.26h-.846v-.26h.371zM6.074 4h.271v.288h-.271zm.387 0h.271v.288h-.271z" class="cls-25"/>
                <path id="Path_23" d="M7.065 4.5h.3v.836h.175v.26h-.692v-.26h.217zm0-.494h.271v.288h-.268z" class="cls-25"/>
                <path id="Path_24" d="M7.591 4.971a.438.438 0 0 1 .486-.471h.285v.817q.013.563-.519.54h-.252v-.262H7.5v-.26h.1zm.4-.193c-.06 0-.092.041-.1.108v.691h.069c.068 0 .1-.042.1-.115v-.684z" class="cls-25"/>
                <path id="Path_25" d="M11.565 4.5h.314v.836h.151v.26H10.6a.538.538 0 0 1-.14.325.415.415 0 0 1-.32.087h-.352a.372.372 0 0 1-.315-.119.751.751 0 0 1-.115-.495v-.485h.309v.613c0 .144.066.213.189.205h.252c.137 0 .2-.088.2-.275v-.543h.312v.425h.317V4.7h.315v.631h.317z" class="cls-25"/>
                <path id="Path_26" d="M12.122 3.95h.3v1.645h-.467v-.26h.165z" class="cls-25"/>
                <path id="Path_27" d="M12.883 5.334h.165v.26h-.467V3.949h.3z" class="cls-25"/>
                <path id="Path_28" d="M13.158 4.51h.475a.432.432 0 0 1 .447.384v.44h.151v.26H13v-.26h.77v-.367a.179.179 0 0 0-.152-.2h-.456zm.248 1.516h.271v-.288h-.271z" class="cls-25"/>
                <path id="Path_29" d="M14.275 4.971a.439.439 0 0 1 .486-.472h.285v.817q.014.563-.519.54h-.252v-.261h-.095v-.26h.095zm.4-.193c-.06 0-.092.041-.1.108v.691h.066c.068 0 .1-.042.1-.115v-.684z" class="cls-25"/>
                <path id="Path_30" d="M16.2 5.452a.187.187 0 0 1 .049-.13.165.165 0 0 1 .244 0 .193.193 0 0 1 0 .259.163.163 0 0 1-.121.053.159.159 0 0 1-.123-.053.185.185 0 0 1-.049-.129" class="cls-25"/>
                <path id="Path_31" d="M17.044 5.452a.183.183 0 0 1 .049-.13.164.164 0 0 1 .243 0 .19.19 0 0 1 0 .259.161.161 0 0 1-.121.053.159.159 0 0 1-.122-.053.181.181 0 0 1-.049-.129" class="cls-25"/>
                <path id="Path_32" d="M17.883 5.452a.183.183 0 0 1 .049-.13.159.159 0 0 1 .122-.054.157.157 0 0 1 .121.054.19.19 0 0 1 0 .259.166.166 0 0 1-.243 0 .181.181 0 0 1-.049-.129" class="cls-25"/>
                <path id="Path_33" d="M19.685 4.788a.866.866 0 0 1 .291-.215 1.012 1.012 0 0 1 .433-.081v.842h.152v.26h-.454V4.85a.905.905 0 0 0-.416.567l-.034.177h-.284a1.251 1.251 0 0 1 .312-.806m0-.784h.271v.288h-.271zm.387 0h.271v.288h-.273z" class="cls-25"/>
                <path id="Path_34" d="M20.618 4.971A.438.438 0 0 1 21.1 4.5h.285v.817q.013.563-.519.54h-.251v-.262h-.1v-.26h.1zm.4-.193c-.059 0-.092.041-.1.108v.691h.066c.068 0 .1-.042.095-.115v-.684z" class="cls-25"/>
                <path id="Path_35" d="M21.826 5.334h.165v.26h-.466V3.949h.3z" class="cls-25"/>
                <path id="Path_36" d="M22.057 4.968a.592.592 0 0 1 .225-.406.425.425 0 0 1 .453-.066l.061.259c-.321-.021-.469.105-.445.375a.225.225 0 0 0 .192.2h.357l.011.26h-.957v-.26h.166a.6.6 0 0 1-.063-.366" class="cls-25"/>
                <path id="Path_37" d="M24.163 4.788a.87.87 0 0 1 .292-.215 1 1 0 0 1 .432-.081v.842h.152v.26h-.453V4.85a.906.906 0 0 0-.417.567l-.034.177h-.284a1.261 1.261 0 0 1 .312-.806m0-.784h.271v.288h-.271zm.387 0h.271v.288h-.271z" class="cls-25"/>
                <path id="Path_38" d="M25.2 3.95h.3v1.385h.2v.26H25v-.26h.2z" class="cls-25"/>
                <path id="Path_39" d="M25.9 4.5h.3v1.1h-.531v-.266h.23zm.024-.355a.171.171 0 0 1 .057-.1h.172v.109h-.119c-.025 0-.035.011-.034.035v.08h.153v.1h-.266v-.1h.037z" class="cls-25"/>
                <path id="Path_40" d="M26.689 5.334h.165v.26h-.466V3.949h.3z" class="cls-25"/>
                <path id="Path_41" d="M27.819 4.7h.314v.631h.317V4.5h.315v.836h.135v.26h-2.084v-.26h.371v-.427h.313v.425h.317z" class="cls-25"/>
                <path id="Path_42" d="M28.949 4.971a.439.439 0 0 1 .486-.472h.285v.817q.014.563-.519.54h-.252v-.261h-.095v-.26h.095zm.4-.193c-.059 0-.092.041-.1.108v.691h.066c.068 0 .1-.042.095-.115v-.684z" class="cls-25"/>
                <path id="Path_43" d="M30.88 5.452a.183.183 0 0 1 .049-.13.164.164 0 0 1 .243 0 .19.19 0 0 1 0 .259.161.161 0 0 1-.121.053.159.159 0 0 1-.122-.053.181.181 0 0 1-.049-.129" class="cls-25"/>
                <path id="Path_44" d="M31.719 5.452a.183.183 0 0 1 .049-.13.159.159 0 0 1 .122-.054.157.157 0 0 1 .121.054.19.19 0 0 1 0 .259.166.166 0 0 1-.243 0 .181.181 0 0 1-.049-.129" class="cls-25"/>
                <path id="Path_45" d="M32.557 5.452a.187.187 0 0 1 .049-.13.165.165 0 0 1 .244 0 .193.193 0 0 1 0 .259.164.164 0 0 1-.122.053.159.159 0 0 1-.122-.053.185.185 0 0 1-.049-.129" class="cls-25"/>
                <path id="Path_46" d="M34.359 4.788a.87.87 0 0 1 .292-.215 1 1 0 0 1 .432-.081v.842h.153v.26h-.454V4.85a.905.905 0 0 0-.416.567l-.035.177h-.284a1.256 1.256 0 0 1 .312-.806m0-.784h.271v.288h-.271zm.386 0h.271v.288h-.271z" class="cls-25"/>
                <path id="Path_47" d="M35.577 4.5h.3v.836h.135v.26h-.821v-.26h.384zm-.366 1.24h.271v.288h-.271zm.386 0h.271v.288H35.6z" class="cls-25"/>
                <path id="Path_48" d="M36.185 4.5h.3v.836h.187v.26h-.7v-.26h.216zm-.013 1.24h.271v.288h-.271z" class="cls-25"/>
                <path id="Path_49" d="M36.877 4.474l.576.017a.325.325 0 0 1 .222.247 1.009 1.009 0 0 1-.061.362.848.848 0 0 1-.117.235h.291v.26H37.3c-.022 0-.051-.026-.086-.077-.037.051-.065.077-.087.077h-.5v-.26h.4a.746.746 0 0 0-.3-.49zm.45.323a.323.323 0 0 0-.25-.044.833.833 0 0 1 .2.387.332.332 0 0 0 .048-.343" class="cls-25"/>
                <path id="Path_50" d="M38.75 4.7h.314v.631h.317V4.5h.319v1.1h-1.953v-.26h.371v-.431h.315v.425h.317zm-.164-.7h.271v.288h-.271zm.194-.333h.257v.274h-.257zm.193.333h.271v.288h-.271z" class="cls-25"/>
                <path id="Path_51" d="M40.968 4.788a.851.851 0 0 1 .292-.215 1 1 0 0 1 .432-.081v.842h.152v.26h-.454V4.85a.905.905 0 0 0-.416.567l-.035.177h-.283a1.251 1.251 0 0 1 .312-.806m0-.784h.271v.288h-.271zm.387 0h.271v.288h-.271z" class="cls-25"/>
                <path id="Path_52" d="M42.649 3.95h.415l-.778.686h.434a.436.436 0 0 1 .471.452v.507H41.8v-.26h1.081q.066-.383-.163-.394h-.793v-.37z" class="cls-25"/>
                <path id="Path_53" d="M43.788 4.5v.918c-.007.409-.174.605-.5.59v-.28c.142 0 .212-.105.211-.314V4.5z" class="cls-25"/>
                <path id="Path_54" d="M44.243 5.334h.165v.26h-.467V3.949h.3z" class="cls-25"/>
                <path id="Path_55" d="M45.368 4.7h.315v.631H46V4.5h.314v.836h.136v.26h-2.084v-.26h.371v-.427h.315v.425h.316zm-.163-.7h.271v.288h-.271zm.193-.333h.258v.274H45.4zm.194.333h.271v.288h-.271z" class="cls-25"/>
                <path id="Path_56" d="M46.5 4.971a.438.438 0 0 1 .485-.472h.285v.817q.014.563-.519.54H46.5v-.261h-.1v-.26h.1zm.4-.193c-.059 0-.092.041-.1.108v.691h.066c.068 0 .1-.042.1-.115v-.684z" class="cls-25"/>
                <path id="Path_57" d="M3.994 12.469h.315v1.1a.519.519 0 0 1-.15.325.451.451 0 0 1-.339.086h-.376a.434.434 0 0 1-.342-.136.718.718 0 0 1-.114-.478v-.482h.327v.612a.185.185 0 0 0 .2.206h.269c.149 0 .219-.089.209-.276zm-.534-.493h.288v.288H3.46z" class="cls-25"/>
                <path id="Path_58" d="M4.795 13.306h.175v.26h-.5v-1.645h.321z" class="cls-25"/>
                <path id="Path_59" d="M5.036 12.942c.009-.307.182-.464.516-.473h.3v.837h.1v.26h-.139q-.11.278-.51.261h-.267v-.261h-.1v-.26h.1zm.426-.193a.1.1 0 0 0-.1.108v.691h.07a.1.1 0 0 0 .1-.115v-.684z" class="cls-25"/>
                <path id="Path_60" d="M6.1 11.921h.32v1.645h-.5v-.26h.18z" class="cls-25"/>
                <path id="Path_61" d="M7.052 12.47v.836h.136v.261h-.153a.449.449 0 0 1-.516.411V13.7c.151 0 .225-.106.224-.314v-.916z" class="cls-25"/>
                <path id="Path_62" d="M7.38 12.469h.32v1.1h-.564v-.26h.244zm-.064 1.241H7.6V14h-.284z" class="cls-25"/>
                <path id="Path_63" d="M8.993 13.424a.178.178 0 0 1 .051-.13.174.174 0 0 1 .13-.053.183.183 0 1 1-.13.313.176.176 0 0 1-.051-.13" class="cls-25"/>
                <path id="Path_64" d="M9.885 13.424a.179.179 0 0 1 .052-.13.173.173 0 0 1 .13-.053.183.183 0 1 1-.13.313.177.177 0 0 1-.052-.13" class="cls-25"/>
                <path id="Path_65" d="M10.777 13.424a.183.183 0 0 1 .052-.13.173.173 0 0 1 .131-.053.171.171 0 0 1 .128.053.182.182 0 0 1 0 .259.172.172 0 0 1-.128.054.177.177 0 0 1-.131-.053.181.181 0 0 1-.052-.13" class="cls-25"/>
                <path id="Path_66" d="M14.159 13.306v-.837h.321v1.1H13q-.588.037-.638-.452v-.645h.309v.48c0 .2.073.324.227.357zm-1.051-1.33h.292v.288h-.288zm.411 0h.288v.288h-.288z" class="cls-25"/>
                <path id="Path_67" d="M14.95 13.306h.176v.26h-.5v-1.645h.321z" class="cls-25"/>
                <path id="Path_68" d="M15.468 12.469h.32v1.1h-.7v-.26h.382zM15.1 13.71h.288V14H15.1zm.412 0h.288V14h-.29z" class="cls-25"/>
                <path id="Path_69" d="M16.19 12.438a.855.855 0 0 1 .45.09.735.735 0 0 1 .323.361.984.984 0 0 1 .076.417h.113v.26h-1.168v-.26h.761v-.055a.5.5 0 0 0-.555-.531z" class="cls-25"/>
                <path id="Path_70" d="M17.325 11.921h.321v1.385h.212v.26h-.75v-.26h.217z" class="cls-25"/>
                <path id="Path_71" d="M18.064 12.469h.321v1.1h-.565v-.26h.244zM18 13.71h.288V14H18z" class="cls-25"/>
                <path id="Path_72" d="M4.76 21.277v-.836h.321v1.1H3.6c-.392.024-.6-.126-.637-.453v-.644h.308v.48c0 .2.073.323.228.356zm-1.052-1.33H4v.288h-.292zm.412 0h.288v.288H4.12z" class="cls-25"/>
                <path id="Path_73" d="M5.551 21.278h.176v.261h-.5v-1.646h.321z" class="cls-25"/>
                <path id="Path_74" d="M5.931 20.441h.321v1.1h-.565v-.261h.244zm-.065 1.241h.288v.288h-.288z" class="cls-25"/>
                <path id="Path_75" d="M6.776 21.278h.175v.261h-.5v-1.646h.321z" class="cls-25"/>
                <path id="Path_76" d="M7.069 20.453h.505a.451.451 0 0 1 .475.384v.44h.16v.261H6.9v-.261h.819v-.367q.009-.15-.162-.195h-.488zm.255-.506h.288v.288h-.288z" class="cls-25"/>
                <path id="Path_77" d="M8.546 20.441h.32v.836h.186v.261h-.9v-.261h.395zm-.394-.494h.288v.288h-.288zm.411 0h.288v.288h-.288z" class="cls-25"/>
                <path id="Path_78" d="M9.219 20.441h.32v1.1h-.565v-.261h.245zm0-.494h.291v.288h-.288z" class="cls-25"/>
                <path id="Rectangle_13" d="M0 0H0.321V1.646H0z" class="cls-25" transform="translate(9.742 19.892)"/>
                <path id="Path_79" d="M11.312 21.4a.183.183 0 0 1 .052-.13.174.174 0 0 1 .131-.054.176.176 0 0 1 .129.054.185.185 0 0 1 0 .259.185.185 0 0 1-.26 0 .181.181 0 0 1-.052-.13" class="cls-25"/>
                <path id="Path_80" d="M12.2 21.4a.179.179 0 0 1 .052-.13.182.182 0 0 1 .259 0 .184.184 0 1 1-.311.13" class="cls-25"/>
                <path id="Path_81" d="M13.1 21.4a.183.183 0 0 1 .052-.13.182.182 0 0 1 .259 0 .182.182 0 0 1 0 .259.173.173 0 0 1-.129.054.176.176 0 0 1-.13-.053.181.181 0 0 1-.052-.13" class="cls-25"/>
                <path id="Path_82" d="M3.3 28.7a.881.881 0 0 1 .31-.215 1.131 1.131 0 0 1 .46-.081v.841h.162v.261h-.488v-.744a.914.914 0 0 0-.443.567l-.037.177h-.3A1.211 1.211 0 0 1 3.3 28.7m0-.785h.288v.288h-.295zm.411 0h.288v.288H3.7z" class="cls-25"/>
                <path id="Path_83" d="M4.563 28.412h.321v1.1h-.7v-.261h.382zm-.369 1.241h.288v.288h-.288zm.411 0h.288v.288h-.288z" class="cls-25"/>
                <path id="Path_84" d="M5.553 28.412v.836h.135v.261h-.152a.45.45 0 0 1-.517.411v-.279c.151 0 .226-.106.225-.314v-.915zm-.3-.494h.288v.288h-.287z" class="cls-25"/>
                <path id="Path_85" d="M6.538 27.864h.441l-.828.686h.462c.321.017.487.168.5.452v.508H5.632v-.261h1.15c.047-.255-.012-.386-.174-.394h-.843v-.37z" class="cls-25"/>
                <path id="Path_86" d="M7.75 28.412v.836h.136v.261h-.153a.45.45 0 0 1-.517.411v-.279c.151 0 .226-.106.225-.314v-.915z" class="cls-25"/>
                <path id="Path_87" d="M7.939 28.885c.01-.307.183-.464.517-.473h.3v.818q.015.563-.552.54h-.265v-.261h-.1v-.26h.1zm.427-.193a.1.1 0 0 0-.1.108v.691h.07a.1.1 0 0 0 .1-.115v-.684z" class="cls-25"/>
                <path id="Path_88" d="M10.768 27.864h.32v1.646H9.811v-.261h.326v-1.385h.321v1.385h.31z" class="cls-25"/>
                <path id="Path_89" d="M12.33 29.367a.183.183 0 0 1 .052-.13.174.174 0 0 1 .131-.054.176.176 0 0 1 .129.054.18.18 0 0 1 .053.13.184.184 0 0 1-.313.13.181.181 0 0 1-.052-.13" class="cls-25"/>
                <path id="Path_90" d="M13.223 29.367a.183.183 0 0 1 .052-.13.174.174 0 0 1 .131-.054.176.176 0 0 1 .129.054.18.18 0 0 1 .053.13.184.184 0 0 1-.313.13.181.181 0 0 1-.052-.13" class="cls-25"/>
                <path id="Path_91" d="M14.116 29.367a.186.186 0 0 1 .051-.13.176.176 0 0 1 .132-.054.174.174 0 0 1 .128.054.181.181 0 0 1 .054.13.178.178 0 0 1-.054.129.174.174 0 0 1-.128.054.179.179 0 0 1-.132-.053.185.185 0 0 1-.051-.13" class="cls-25"/>
                <path id="Path_92" d="M4.76 37.219v-.836h.321v1.1H3.6c-.392.025-.6-.127-.637-.453v-.643h.308v.479c0 .205.073.323.228.357zm-1.052-1.33H4v.288h-.292zm.412 0h.288v.288H4.12z" class="cls-25"/>
                <path id="Path_93" d="M5.551 37.219h.176v.261h-.5v-1.646h.321z" class="cls-25"/>
                <path id="Path_94" d="M6.068 36.383h.321v1.1h-.7v-.26h.381zm-.368 1.24h.288v.288H5.7zm.412 0H6.4v.288h-.289z" class="cls-25"/>
                <path id="Path_95" d="M6.79 36.351a.846.846 0 0 1 .45.091.733.733 0 0 1 .323.36.987.987 0 0 1 .076.417h.114v.261H6.585v-.261h.761v-.055a.5.5 0 0 0-.556-.53z" class="cls-25"/>
                <path id="Path_96" d="M7.926 35.834h.321v1.385h.212v.261h-.75v-.261h.217z" class="cls-25"/>
                <path id="Path_97" d="M8.665 36.383h.321v1.1h-.565v-.26h.244zm-.065 1.24h.288v.288H8.6z" class="cls-25"/>
                <path id="Path_98" d="M10.277 37.337a.179.179 0 0 1 .052-.131.176.176 0 0 1 .13-.054.18.18 0 0 1 .129.054.186.186 0 0 1 0 .26.179.179 0 0 1-.129.053.179.179 0 0 1-.182-.182" class="cls-25"/>
                <path id="Path_99" d="M11.169 37.337a.184.184 0 0 1 .052-.131.178.178 0 0 1 .131-.054.184.184 0 0 1 0 .367.179.179 0 0 1-.183-.182" class="cls-25"/>
                <path id="Path_100" d="M12.062 37.337a.184.184 0 0 1 .052-.131.178.178 0 0 1 .131-.054.184.184 0 0 1 0 .367.179.179 0 0 1-.183-.182" class="cls-25"/>
                <path id="Path_101" d="M14.678 36.383h.315v1.1a.53.53 0 0 1-.149.326.469.469 0 0 1-.34.086h-.376a.438.438 0 0 1-.342-.137.718.718 0 0 1-.114-.478v-.482H14v.612a.185.185 0 0 0 .2.206h.27c.148 0 .218-.089.208-.275zm-.534-.494h.288v.288h-.288z" class="cls-25"/>
                <path id="Path_102" d="M15.478 37.219h.176v.261h-.5v-1.646h.321z" class="cls-25"/>
                <path id="Path_103" d="M15.719 36.855c.01-.306.183-.464.517-.472h.3v.836h.1v.26H16.5a.461.461 0 0 1-.51.26h-.268v-.26h-.1v-.26h.1zm.427-.193a.1.1 0 0 0-.1.108v.691h.069a.1.1 0 0 0 .1-.115v-.684z" class="cls-25"/>
                <path id="Path_104" d="M16.784 35.834h.316v1.646h-.5v-.261h.175z" class="cls-25"/>
                <path id="Path_105" d="M17.737 36.383v.836h.135v.261h-.152a.45.45 0 0 1-.517.411v-.28c.151 0 .226-.106.225-.314v-.914z" class="cls-25"/>
                <path id="Path_106" d="M18.064 36.383h.321v1.1h-.565v-.26h.244zM18 37.623h.288v.288H18z" class="cls-25"/>
                <path id="Path_107" d="M3.3 44.644a.894.894 0 0 1 .31-.215 1.131 1.131 0 0 1 .46-.081v.841h.162v.261h-.488v-.744a.914.914 0 0 0-.443.567l-.037.177h-.3a1.211 1.211 0 0 1 .332-.806m0-.784h.288v.288h-.291zm.411 0h.288v.288H3.7z" class="cls-25"/>
                <path id="Path_108" d="M4.59 44.353h.321v.836h.144v.261h-.874v-.261h.409zM4.2 45.6h.288v.287H4.2zm.412 0H4.9v.287h-.288z" class="cls-25"/>
                <path id="Path_109" d="M5.174 44.651a.5.5 0 0 1 .528-.3h.418v1.1H5.01v-.261h.315a.484.484 0 0 1-.151-.538m.592-.005c-.185-.013-.283.044-.294.17a.55.55 0 0 0 .331.373v-.543zm-.195-.786h.288v.288h-.288z" class="cls-25"/>
                <path id="Path_110" d="M6.579 45.19h.176v.261h-.5V43.8h.321z" class="cls-25"/>
                <path id="Path_111" d="M6.883 44.651a.5.5 0 0 1 .527-.3h.418v.836h.121v.261H6.718v-.261h.315a.485.485 0 0 1-.15-.538m.592-.005c-.186-.013-.284.044-.3.17a.552.552 0 0 0 .332.373v-.543zm-.2-.786h.288v.288h-.284z" class="cls-25"/>
                <path id="Path_112" d="M8.955 44.56h.335v.629h.337v-.836h.335v1.1H7.888v-.261h.395v-.424h.335v.424h.337zm-.174-.7h.288v.288h-.288zm.206-.334h.274v.274h-.274zm.206.334h.288v.288h-.288z" class="cls-25"/>
                <path id="Path_113" d="M11.183 45.308a.177.177 0 0 1 .052-.13.172.172 0 0 1 .13-.054.176.176 0 0 1 .129.054.174.174 0 0 1 .053.13.172.172 0 0 1-.053.129.18.18 0 0 1-.129.054.175.175 0 0 1-.13-.053.177.177 0 0 1-.052-.13" class="cls-25"/>
                <path id="Path_114" d="M12.075 45.308a.181.181 0 0 1 .052-.13.174.174 0 0 1 .131-.054.183.183 0 0 1 .182.184.176.176 0 0 1-.053.129.182.182 0 0 1-.129.054.177.177 0 0 1-.131-.053.181.181 0 0 1-.052-.13" class="cls-25"/>
                <path id="Path_115" d="M12.968 45.308a.181.181 0 0 1 .052-.13.174.174 0 0 1 .131-.054.172.172 0 0 1 .128.054.175.175 0 0 1 .054.13.173.173 0 0 1-.054.129.183.183 0 0 1-.259 0 .181.181 0 0 1-.052-.13" class="cls-25"/>
                <path id="Path_116" d="M14.885 44.644a.9.9 0 0 1 .31-.215 1.131 1.131 0 0 1 .46-.081v.841h.162v.261h-.483v-.744a.917.917 0 0 0-.443.567l-.036.177h-.3a1.216 1.216 0 0 1 .332-.806m0-.784h.288v.288h-.288zm.411 0h.288v.288H15.3z" class="cls-25"/>
                <path id="Path_117" d="M15.877 44.826c.01-.306.182-.464.517-.472h.3v.816c.01.376-.174.557-.553.541h-.267v-.261h-.1v-.26h.1zm.426-.193a.1.1 0 0 0-.1.108v.692h.07a.1.1 0 0 0 .1-.115v-.685z" class="cls-25"/>
                <path id="Path_118" d="M17.722 44.353v.836h.131v.261h-.131a.466.466 0 0 1-.073.285.42.42 0 0 1-.36.126h-.4v-.278h.44c.083-.007.115-.052.1-.133a.519.519 0 0 1-.494-.211.6.6 0 0 1-.052-.554q.1-.326.738-.332zm-.3.271c-.235.01-.335.131-.3.363a.256.256 0 0 0 .3.2z" class="cls-25"/>
                <path id="Path_119" d="M18.01 43.8h.321v1.39h.212v.261h-.75v-.261h.217z" class="cls-25"/>
                <path id="Path_120" d="M18.767 44.33l.613.017a.333.333 0 0 1 .236.247.973.973 0 0 1-.065.362.828.828 0 0 1-.124.234h.31v.261h-.516c-.024 0-.054-.026-.092-.077-.038.051-.069.077-.091.077H18.5v-.261h.424a.739.739 0 0 0-.318-.489zm.479.323a.361.361 0 0 0-.266-.044.833.833 0 0 1 .215.387.317.317 0 0 0 .051-.343" class="cls-25"/>
                <path id="Path_121" d="M19.8 44.826c.01-.306.183-.464.517-.472h.3v.816a.464.464 0 0 1-.552.541H19.8v-.261h-.1v-.26h.1zm.427-.193a.1.1 0 0 0-.1.108v.692h.069a.1.1 0 0 0 .1-.115v-.685z" class="cls-25"/>
                <path id="Path_122" d="M21.984 44.644a.894.894 0 0 1 .31-.215 1.131 1.131 0 0 1 .46-.081v.841h.162v.261h-.483v-.744a.909.909 0 0 0-.442.567l-.038.177h-.3a1.211 1.211 0 0 1 .332-.806m0-.784h.288v.288h-.288zm.411 0h.288v.288h-.288z" class="cls-25"/>
                <path id="Path_123" d="M23.032 44.367h.5a.452.452 0 0 1 .476.384v.7h-1.149v-.261h.819v-.367c.006-.1-.048-.165-.162-.194h-.484z" class="cls-25"/>
                <path id="Path_124" d="M24.513 45.19h.175v.261h-.5V43.8h.321z" class="cls-25"/>
                <path id="Path_125" d="M25.044 44.353h.321v1.1h-.716v-.261h.4zm-.38-.493h.288v.288h-.288zm.411 0h.288v.288h-.288z" class="cls-25"/>
                <path id="Rectangle_14" d="M0 0H0.321V1.646H0z" class="cls-25" transform="translate(25.552 43.804)"/>
                <path id="Path_126" d="M3.3 52.616a.9.9 0 0 1 .31-.216 1.149 1.149 0 0 1 .46-.08v.842h.162v.26h-.488v-.744a.914.914 0 0 0-.443.567l-.037.177h-.3a1.213 1.213 0 0 1 .332-.806m0-.784h.288v.288h-.291zm.411 0h.288v.288H3.7z" class="cls-25"/>
                <path id="Path_127" d="M4.357 51.778h.321v1.645h-.5v-.26h.176z" class="cls-25"/>
                <path id="Path_128" d="M5.04 52.294a.885.885 0 0 1 .45.091.729.729 0 0 1 .323.36.987.987 0 0 1 .076.417v.26H4.834v-.26h.761v-.056a.5.5 0 0 0-.555-.53z" class="cls-25"/>
                <path id="Path_129" d="M6.33 53.162h.176v.26h-.5v-1.645h.324z" class="cls-25"/>
                <path id="Path_130" d="M6.576 52.8a.58.58 0 0 1 .238-.407.472.472 0 0 1 .482-.065l.065.258q-.512-.03-.474.375a.235.235 0 0 0 .2.2h.379l.011.26H6.465v-.26h.177a.558.558 0 0 1-.066-.366" class="cls-25"/>
                <path id="Path_131" d="M8.684 53.28a.181.181 0 0 1 .052-.13.174.174 0 0 1 .13-.054.184.184 0 0 1 .183.184.173.173 0 0 1-.054.129.183.183 0 0 1-.259 0 .18.18 0 0 1-.052-.13" class="cls-25"/>
                <path id="Path_132" d="M9.576 53.28a.177.177 0 0 1 .052-.13.174.174 0 0 1 .13-.054.184.184 0 0 1 .183.184.173.173 0 0 1-.054.129.181.181 0 0 1-.311-.129" class="cls-25"/>
                <path id="Path_133" d="M10.469 53.28a.177.177 0 0 1 .052-.13.174.174 0 0 1 .13-.054.176.176 0 0 1 .129.054.174.174 0 0 1 .053.13.172.172 0 0 1-.053.129.181.181 0 0 1-.311-.129" class="cls-25"/>
                <path id="Path_134" d="M12.386 52.616a.9.9 0 0 1 .31-.216 1.149 1.149 0 0 1 .46-.08v.842h.162v.26h-.483v-.744a.917.917 0 0 0-.443.567l-.037.177h-.3a1.219 1.219 0 0 1 .333-.806m0-.784h.288v.288h-.288zm.411 0h.288v.288H12.8z" class="cls-25"/>
                <path id="Path_135" d="M13.44 52.623a.5.5 0 0 1 .528-.3h.418v1.1h-1.111v-.26h.316a.486.486 0 0 1-.151-.539m.592 0c-.186-.014-.284.043-.295.17a.558.558 0 0 0 .332.373v-.543zm-.2-.787h.288v.288h-.288z" class="cls-25"/>
                <path id="Path_136" d="M14.845 53.162h.175v.26h-.5v-1.645h.321z" class="cls-25"/>
                <path id="Path_137" d="M15.148 52.623a.5.5 0 0 1 .528-.3h.418v.837h.121v.26h-1.231v-.26h.316a.486.486 0 0 1-.151-.539m.592 0c-.186-.014-.284.043-.294.17a.554.554 0 0 0 .331.373v-.543zm-.2-.787h.288v.288h-.288z" class="cls-25"/>
                <path id="Path_138" d="M17.221 52.531h.334v.631h.338v-.837h.334v1.1h-2.073v-.26h.4v-.426h.335v.426h.337zm-.174-.7h.288v.288h-.288zm.2-.333h.274v.273h-.274zm.206.333h.288v.288h-.288z" class="cls-25"/>
                <path id="Path_139" d="M19.448 53.28a.181.181 0 0 1 .052-.13.174.174 0 0 1 .131-.054.176.176 0 0 1 .129.054.178.178 0 0 1 .053.13.184.184 0 0 1-.313.13.18.18 0 0 1-.052-.13" class="cls-25"/>
                <path id="Path_140" d="M20.341 53.28a.181.181 0 0 1 .052-.13.174.174 0 0 1 .131-.054.183.183 0 0 1 .182.184.176.176 0 0 1-.053.129.185.185 0 0 1-.26 0 .18.18 0 0 1-.052-.13" class="cls-25"/>
                <path id="Path_141" d="M21.234 53.28a.177.177 0 0 1 .052-.13.174.174 0 0 1 .13-.054.184.184 0 0 1 .183.184.173.173 0 0 1-.054.129.181.181 0 0 1-.311-.129" class="cls-25"/>
                <path id="Path_142" d="M23.15 52.616a.91.91 0 0 1 .311-.216 1.149 1.149 0 0 1 .46-.08v.842h.161v.26H23.6v-.744a.91.91 0 0 0-.443.567l-.037.177h-.3a1.212 1.212 0 0 1 .331-.806m0-.784h.288v.288h-.288zm.411 0h.288v.288h-.29z" class="cls-25"/>
                <path id="Path_143" d="M24.488 52.326h.491c.281 0 .432.111.451.328v.509h.085v.26h-1.479v-.26h.1c-.017-.35.114-.532.393-.549h-.044zm.2.837c.013-.175-.036-.261-.147-.259s-.159.088-.14.259zm-.085-.549q.385.036.371.549h.147v-.4c0-.1-.051-.155-.149-.15z" class="cls-25"/>
                <path id="Path_144" d="M25.866 52.325h.321v1.1h-.7v-.26h.381zm-.366 1.241h.288v.287H25.5zm.411 0h.289v.287h-.288z" class="cls-25"/>
                <path id="Path_145" d="M26.856 52.325v.837h.136v.26h-.152a.45.45 0 0 1-.517.411v-.279c.15 0 .226-.106.225-.315v-.914zm-.3-.493h.288v.288h-.288z" class="cls-25"/>
                <path id="Path_146" d="M27.184 52.325h.32v1.1h-.564v-.26h.244zm0-.493h.288v.288h-.288z" class="cls-25"/>
                <path id="Path_147" d="M28.8 53.28a.181.181 0 0 1 .052-.13.174.174 0 0 1 .131-.054.176.176 0 0 1 .129.054.178.178 0 0 1 .053.13.184.184 0 0 1-.313.13.18.18 0 0 1-.052-.13" class="cls-25"/>
                <path id="Path_148" d="M29.688 53.28a.177.177 0 0 1 .052-.13.174.174 0 0 1 .131-.054.176.176 0 0 1 .129.054.178.178 0 0 1 .053.13.183.183 0 1 1-.365 0" class="cls-25"/>
                <path id="Path_149" d="M30.581 53.28a.177.177 0 0 1 .052-.13.174.174 0 0 1 .13-.054.184.184 0 0 1 .183.184.173.173 0 0 1-.054.129.181.181 0 0 1-.311-.129" class="cls-25"/>
                <path id="Path_150" d="M32.183 53.422a.457.457 0 0 1 0-.121 1.478 1.478 0 0 1 .056-.173 1.385 1.385 0 0 1 .106-.231 1.856 1.856 0 0 1 .128-.186 1.486 1.486 0 0 1 .153-.164.98.98 0 0 1 .238-.153.9.9 0 0 1 .4-.074h.033v1.1zm.317-1.59h.288v.288H32.5zm.479.846a.868.868 0 0 0-.409.489h.409zm-.068-.846h.289v.288h-.288z" class="cls-25"/>
                <path id="Path_151" d="M33.925 52.326v.837h.136v.26h-.153a.449.449 0 0 1-.516.411v-.279c.151 0 .225-.106.224-.315v-.914z" class="cls-25"/>
                <path id="Path_152" d="M34.17 52.338h.5a.452.452 0 0 1 .476.384v.7H34v-.26h.819v-.368c.006-.1-.048-.164-.162-.194h-.487z" class="cls-25"/>
                <path id="Path_153" d="M36.418 53.28a.181.181 0 0 1 .052-.13.174.174 0 0 1 .13-.05.176.176 0 0 1 .129.054.178.178 0 0 1 .053.13.184.184 0 0 1-.313.13.18.18 0 0 1-.052-.13" class="cls-25"/>
                <path id="Path_154" d="M37.311 53.28a.177.177 0 0 1 .052-.13.183.183 0 1 1 .13.313.179.179 0 0 1-.182-.183" class="cls-25"/>
                <path id="Path_155" d="M38.2 53.28a.177.177 0 0 1 .052-.13.174.174 0 0 1 .13-.054.176.176 0 0 1 .129.054.174.174 0 0 1 .053.13.172.172 0 0 1-.053.129.181.181 0 0 1-.311-.129" class="cls-25"/>
                <path id="Path_156" d="M41.586 53.162v-.837h.321v1.1H40.43q-.588.037-.638-.452v-.645h.308v.48c0 .2.073.324.227.357zm-1.052-1.33h.288v.288h-.288zm.411 0h.288v.288h-.288z" class="cls-25"/>
                <path id="Path_157" d="M42.376 53.162h.176v.26h-.5v-1.645h.32z" class="cls-25"/>
                <path id="Path_158" d="M42.757 52.325h.32v1.1h-.565v-.26h.245zm-.065 1.241h.288v.287h-.288z" class="cls-25"/>
                <path id="Path_159" d="M43.6 53.162h.175v.26h-.5v-1.645h.325z" class="cls-25"/>
                <path id="Path_160" d="M43.894 52.338h.5a.45.45 0 0 1 .475.384v.44h.161v.26h-1.309v-.26h.819v-.368c.006-.1-.048-.164-.162-.194h-.484zm.255-.506h.288v.288h-.288z" class="cls-25"/>
                <path id="Path_161" d="M45.371 52.325h.321v.837h.185v.26h-.9v-.26h.395zm-.394-.493h.288v.288h-.288zm.411 0h.288v.288h-.288z" class="cls-25"/>
                <path id="Path_162" d="M46.044 52.325h.321v1.1H45.8v-.26h.244zm0-.493h.288v.288h-.288z" class="cls-25"/>
                <path id="Path_163" d="M46.889 53.422h-.321v-1.645h.321zm-.28.177v.125h-.04v.1h.283v-.1h-.162v-.079q0-.038.036-.036h.126V53.5h-.182a.172.172 0 0 0-.061.1" class="cls-25"/>
                <path id="Path_164" d="M25.563 18.156l.437-.062c-.109.424-.161.636-.255 1.06l-.071.33a.822.822 0 0 1-.821.594l-.549.058a.528.528 0 0 1-.459-.11c-.089-.1-.1-.285-.016-.564.064-.236.1-.354.168-.59l.464-.068c-.085.3-.126.454-.2.756-.037.167.041.24.23.219l.39-.044a.4.4 0 0 0 .379-.38c.11-.48.17-.72.3-1.2m-.558-.5c.158-.026.237-.04.4-.065l-.108.359-.4.063c.044-.143.066-.214.112-.357" class="cls-26"/>
                <path id="Path_165" d="M26.446 19.077l.252-.026c-.026.133-.04.2-.065.335-.287.027-.43.042-.717.072.027-.132.041-.2.07-.331.152-.7.238-1.057.431-1.761.175-.026.263-.039.439-.063-.183.71-.265 1.064-.41 1.774" class="cls-26"/>
                <path id="Path_166" d="M26.887 18.574a.906.906 0 0 1 .855-.694l.424-.046c-.083.428-.122.642-.193 1.07v.025l.146-.012c-.023.136-.033.2-.055.341l-.208.018a.894.894 0 0 1-.8.4l-.39.035.062-.336-.147.014.065-.334.145-.015c.037-.188.056-.281.1-.468m.654-.316a.208.208 0 0 0-.175.156c-.072.359-.106.538-.169.9l.1-.009a.176.176 0 0 0 .173-.163c.062-.356.095-.534.165-.89l-.095.01" class="cls-26"/>
                <path id="Path_167" d="M28.646 17.077c.176-.02.264-.029.44-.047-.137.732-.2 1.1-.307 1.831l-.049.344c-.287.021-.431.033-.718.057l.055-.342.252-.022c.116-.728.181-1.092.327-1.821" class="cls-26"/>
                <path id="Path_168" d="M29.84 17.678c-.066.446-.1.67-.154 1.116l.195-.013-.041.348-.221.014a.8.8 0 0 1-.819.6l.049-.37c.219-.017.344-.163.38-.441.066-.485.1-.729.179-1.215l.432-.036" class="cls-26"/>
                <path id="Path_169" d="M30.3 17.641l.449-.033c-.056.451-.082.676-.13 1.126l-.036.351c-.327.018-.49.028-.817.049l.042-.349.35-.022c.053-.449.081-.674.142-1.122M30 19.31c.167-.01.251-.015.418-.023l-.038.386-.421.023.041-.386" class="cls-26"/>
                <path id="Path_170" d="M32.46 18.807a.265.265 0 0 1 .086-.18.29.29 0 0 1 .192-.08.237.237 0 0 1 .18.067.216.216 0 0 1 .067.176.254.254 0 0 1-.087.178.288.288 0 0 1-.19.079.243.243 0 0 1-.184-.066.215.215 0 0 1-.064-.174" class="cls-26"/>
                <path id="Path_171" d="M33.746 18.77a.253.253 0 0 1 .082-.18.269.269 0 0 1 .189-.077.249.249 0 0 1 .183.07.229.229 0 0 1 .071.177.243.243 0 0 1-.082.178.272.272 0 0 1-.189.077.253.253 0 0 1-.186-.069.223.223 0 0 1-.068-.176" class="cls-26"/>
                <path id="Path_172" d="M35.031 18.752a.247.247 0 0 1 .077-.179.271.271 0 0 1 .372 0 .239.239 0 0 1 .076.179.234.234 0 0 1-.077.177.263.263 0 0 1-.187.074.256.256 0 0 1-.188-.071.231.231 0 0 1-.073-.178" class="cls-26"/>
                <path id="Path_173" d="M39.888 18.69c-.039-.453-.061-.68-.108-1.133l.449.028c.067.592.1.888.154 1.48-.854-.043-1.282-.06-2.135-.084-.565.019-.88-.193-.943-.641-.012-.354-.019-.53-.033-.883l.432.01.031.658c.01.28.125.445.349.5.722.02 1.082.034 1.8.069m-1.624-1.877c.158.006.237.01.4.018l.032.392-.4-.016-.027-.394m.565.026l.4.021.037.391-.4-.02-.033-.392" class="cls-25"/>
                <path id="Path_174" d="M41.024 18.753l.252.016c.017.139.024.209.04.349-.287-.018-.43-.026-.717-.041l-.035-.351c-.078-.747-.121-1.12-.218-1.867l.44.035c.106.743.154 1.115.238 1.859" class="cls-25"/>
                <path id="Path_175" d="M41.417 17.671c.18.014.269.022.449.038.07.445.1.667.163 1.112l.046.346c-.327-.022-.49-.032-.817-.052l-.04-.35.35.023c-.055-.446-.086-.67-.151-1.117m.123 1.652l.418.026c.019.154.028.23.045.384l-.421-.025c-.016-.154-.024-.231-.042-.385" class="cls-25"/>
                <path id="Path_176" d="M42.781 18.879l.252.021.053.342-.718-.054-.047-.345c-.1-.735-.165-1.1-.3-1.837l.441.047c.141.73.2 1.1.316 1.826" class="cls-25"/>
                <path id="Path_177" d="M43.012 17.833c.282.029.423.044.7.076a.936.936 0 0 1 .775.572c.049.227.073.34.117.567l.23.024.066.334c-.759-.076-1.139-.11-1.9-.17-.02-.137-.03-.206-.052-.343.47.04.705.061 1.174.107-.035-.191-.053-.286-.091-.477-.016-.127-.11-.22-.279-.276-.273-.03-.41-.043-.683-.07l-.063-.344m.22-.623l.4.048.083.374-.4-.046-.079-.376" class="cls-25"/>
                <path id="Path_178" d="M45.074 18.06c.179.023.269.035.448.06.112.422.163.634.26 1.056l.265.031c.031.131.046.2.075.328-.52-.059-.781-.086-1.3-.138l-.066-.334c.227.023.341.036.567.061-.092-.426-.141-.639-.247-1.064m-.7-.7l.4.056c.039.147.058.22.1.367l-.4-.053-.091-.37m.565.08l.4.059c.041.145.061.218.1.363l-.4-.056c-.038-.146-.057-.22-.1-.366" class="cls-25"/>
                <path id="Path_179" d="M46.016 18.19c.179.026.269.039.448.067.122.415.179.622.284 1.037.033.129.049.194.08.323-.326-.039-.489-.058-.816-.1-.029-.131-.044-.2-.074-.328l.35.043c-.1-.419-.155-.629-.272-1.047m-.174-.617l.4.064.11.358-.4-.062c-.041-.144-.063-.216-.106-.36" class="cls-25"/>
                <path id="Path_180" d="M47.585 19.711l-.464-.058c-.2-.812-.32-1.217-.588-2.029l.44.077c.28.8.4 1.207.612 2.01m-.351.167l.037.154-.058-.007.03.129.412.047-.03-.128-.236-.028-.024-.1c-.01-.042 0-.043.041-.038l.184.023-.034-.133-.264-.033a.129.129 0 0 0-.058.111" class="cls-25"/>
                <path id="Path_181" d="M23.532 25.465a1.712 1.712 0 0 1 .545-.305 2.422 2.422 0 0 1 .8-.125c-.013.479-.015.718-.008 1.2h.28c0 .149 0 .223.007.372l-.836-.011c-.012-.419-.014-.629-.01-1.048a1.351 1.351 0 0 0-.764.792c-.024.1-.036.147-.058.246l-.523-.008a1.459 1.459 0 0 1 .566-1.112m.038-1.089l.5-.014c-.009.162-.013.243-.019.4l-.5.01c.006-.16.01-.24.02-.4m.711-.019l.5-.013c-.008.164-.012.245-.018.409l-.5.009c.007-.162.01-.243.019-.4" class="cls-25"/>
                <path id="Path_182" d="M25.362 25.463c.122-.28.451-.434.923-.437l.725-.008c-.01.491-.012.736-.007 1.226 0 .153 0 .229.007.382-.771-.007-1.156-.012-1.926-.021 0-.148 0-.223-.007-.372h.547a.618.618 0 0 1-.262-.774m1.028-.011c-.322-.019-.494.064-.514.248a.874.874 0 0 0 .578.541v-.79h-.064m-.309-1.138l.5-.01-.015.42-.5.007.016-.417" class="cls-25"/>
                <path id="Path_183" d="M27.8 26.248h.3l.005.387-.86-.008c0-.152 0-.23-.006-.382-.008-.815 0-1.222.031-2.037l.554-.01c-.03.82-.036 1.229-.028 2.049" class="cls-25"/>
                <path id="Path_184" d="M28.326 25.449c.121-.291.449-.449.921-.45l.725-.006c-.006.506-.007.759 0 1.265h.21v.4c-.854-.006-1.282-.009-2.136-.017v-.386h.547a.656.656 0 0 1-.262-.8m1.028-.01c-.322-.019-.493.066-.513.257a.888.888 0 0 0 .578.56v-.817h-.064m-.318-1.178l.5-.007c-.005.173-.007.26-.01.433l-.5.006c0-.173.006-.26.011-.432" class="cls-25"/>
                <path id="Path_185" d="M31.925 25.3h.58v.968h.586V24.98h.58v1.689c-1.438 0-2.158-.006-3.6-.015v-.394h.685v-.646h.581v.649h.585v-.965m-.29-1.068h.5c0 .177 0 .265-.006.442h-.5c0-.176 0-.264.007-.44m.367-.516h.473c0 .168 0 .252-.007.421h-.474c0-.168 0-.252.008-.42m.346.507h.5c0 .176 0 .265-.005.442h-.5l.005-.441" class="cls-25"/>
                <path id="Path_186" d="M38.562 26.264v-1.285h.556c.006.672.006 1.008 0 1.681-1.025 0-1.537.006-2.561.007q-1.02.058-1.106-.7v-1h.536v.741a.475.475 0 0 0 .394.551h2.182m-1.828-2.052h.5v.444h-.5v-.445m.711 0h.5v.444h-.5v-.444" class="cls-25"/>
                <path id="Path_187" d="M39.935 26.261h.305v.4h-.861v-.4c0-.848 0-1.272-.013-2.12l.554.006c.017.845.02 1.268.016 2.113" class="cls-25"/>
                <path id="Path_188" d="M40.355 25.707c.016-.467.312-.706.892-.714h.525c.007.492.008.738.005 1.231.013.565-.313.84-.968.823h-.464c0-.159 0-.238.006-.4h-.176v-.4h.176v-.553m.739-.292a.169.169 0 0 0-.18.164c0 .419 0 .628-.005 1.047h.122c.125-.006.185-.065.178-.175v-1.036h-.117" class="cls-25"/>
                <path id="Path_189" d="M43.551 25.011c.009.5.01.742.005 1.237h.227c0 .154 0 .231-.006.385h-.226a.618.618 0 0 1-.138.423.834.834 0 0 1-.627.2l-.695.009c0-.167.006-.251.009-.418l.763-.007c.142-.013.2-.079.167-.2a.947.947 0 0 1-.853-.31.813.813 0 0 1-.089-.833c.119-.325.542-.487 1.275-.486h.188m-.516.4c-.409.013-.6.232-.515.541a.443.443 0 0 0 .515.3v-.843" class="cls-25"/>
                <path id="Path_190" d="M43.671 26.248l2-.011c.085-.367-.018-.555-.3-.567h-1.464c0-.218 0-.327-.005-.545.53-.362.793-.54 1.311-.888l.763.018c-.553.379-.834.574-1.4.97l.8.006c.555.03.852.249.876.654v.352h.15v.371c-1.091.013-1.636.019-2.726.029 0-.154 0-.231.005-.385" class="cls-25"/>
                <path id="Path_191" d="M46.61 25.063l.875.012c.466.024.749.2.835.54v.6c0 .143 0 .215-.008.358l-.652.009-1.347.018c0-.148.005-.223.007-.372l1.42-.009v-.511c.01-.138-.085-.229-.284-.273l-.839-.005c0-.149 0-.224-.008-.372" class="cls-25"/>
                <path id="Path_192" d="M26.7 33.636a.158.158 0 0 1 .035-.158.186.186 0 0 1 .167-.047.362.362 0 0 1 .2.09.326.326 0 0 1 .112.177.162.162 0 0 1-.038.157.186.186 0 0 1-.163.047.361.361 0 0 1-.2-.091.336.336 0 0 1-.112-.175" class="cls-25"/>
                <path id="Path_193" d="M27.945 33.782a.174.174 0 0 1 .04-.163.2.2 0 0 1 .17-.051.335.335 0 0 1 .194.088.313.313 0 0 1 .107.179.171.171 0 0 1-.043.161.192.192 0 0 1-.166.052.343.343 0 0 1-.195-.089.316.316 0 0 1-.107-.177" class="cls-25"/>
                <path id="Path_194" d="M29.195 33.9a.185.185 0 0 1 .045-.166.2.2 0 0 1 .172-.056.329.329 0 0 1 .193.086.3.3 0 0 1 .1.181.183.183 0 0 1-.048.165.2.2 0 0 1-.168.056.332.332 0 0 1-.193-.087.3.3 0 0 1-.1-.179" class="cls-25"/>
                <path id="Path_195" d="M33.922 34.014c-.019-.458-.027-.688-.044-1.146l.462.008c.017.6.025.9.045 1.505-.823-.016-1.235-.029-2.057-.068-.544.006-.861-.217-.952-.662-.035-.348-.051-.523-.082-.872l.444.021c.021.261.032.391.055.651a.486.486 0 0 0 .363.5c.706.033 1.06.046 1.766.063m-1.6-1.862l.42.013.021.394-.417-.014-.024-.393m.6.019l.42.01.017.394-.416-.011-.021-.393" class="cls-25"/>
                <path id="Path_196" d="M35.034 34.033h.247v.358c-.276 0-.415 0-.691-.007l-.01-.358c-.019-.76-.028-1.14-.044-1.9h.47c.008.76.014 1.141.025 1.9" class="cls-25"/>
                <path id="Path_197" d="M35.763 32.886h.463l-.014 1.148-.005.359h-.978v-.359h.536v-1.148m-.514 1.7h.4v.4h-.4v-.4m.57 0h.4v.4h-.4v-.4" class="cls-25"/>
                <path id="Path_198" d="M36.805 32.835a1.262 1.262 0 0 1 .645.114.911.911 0 0 1 .441.483 1.233 1.233 0 0 1 .078.567l.16-.005-.022.357c-.651.022-.976.03-1.627.037 0-.143 0-.214.007-.358.427 0 .641-.008 1.069-.019v-.075c.006-.469-.249-.705-.763-.713 0-.156.006-.233.009-.388" class="cls-25"/>
                <path id="Path_199" d="M38.48 32.1l.469-.014c-.044.754-.07 1.132-.127 1.887l.3-.014-.03.355c-.418.02-.627.029-1.045.044l.021-.357c.122 0 .183 0 .305-.01.048-.757.07-1.135.108-1.891" class="cls-25"/>
                <path id="Path_200" d="M39.505 32.805l.462-.022c-.039.453-.061.68-.107 1.133l-.036.352c-.315.019-.472.028-.787.043l.029-.354.344-.017.1-1.135m-.236 1.689l.4-.022-.042.39-.4.024.038-.392" class="cls-25"/>
                <path id="Path_201" d="M41.652 33.948a.3.3 0 0 1 .1-.18.327.327 0 0 1 .194-.086.208.208 0 0 1 .171.056.182.182 0 0 1 .047.166.309.309 0 0 1-.1.178.322.322 0 0 1-.192.087.2.2 0 0 1-.17-.054.189.189 0 0 1-.046-.167" class="cls-25"/>
                <path id="Path_202" d="M42.9 33.833a.312.312 0 0 1 .1-.179.346.346 0 0 1 .2-.089.2.2 0 0 1 .168.052.167.167 0 0 1 .041.162.308.308 0 0 1-.108.176.341.341 0 0 1-.194.09.19.19 0 0 1-.167-.05.172.172 0 0 1-.041-.162" class="cls-25"/>
                <path id="Path_203" d="M44.151 33.7a.335.335 0 0 1 .11-.177.359.359 0 0 1 .2-.09.19.19 0 0 1 .166.047.156.156 0 0 1 .036.158.324.324 0 0 1-.114.174.36.36 0 0 1-.195.092.184.184 0 0 1-.166-.046.162.162 0 0 1-.035-.158" class="cls-25"/>
            </g>
        </g>
    </g>
</svg>
